<?xml version="1.0" ?><svg id="Layer_1" style="enable-background:new 0 0 62 62;" version="1.1" viewBox="0 0 62 62" xml:space="preserve" xmlns="http://www.w3.org/2000/svg" xmlns:xlink="http://www.w3.org/1999/xlink"><style type="text/css">
	.st0{fill:#5FD2FF;}
	.st1{fill:#FFFFFF;}
	.st2{fill:#0082ED;}
	.st3{fill:#2BA8FC;}
	.st4{fill:#CECECE;}
	.st5{fill:#F92B75;}
	.st6{fill:#3BB0FF;}
	.st7{fill:#CE004F;}
	.st8{fill:none;stroke:#ED0C68;stroke-width:5;stroke-linecap:round;stroke-linejoin:round;stroke-miterlimit:10;}
	.st9{fill:#ED0C68;}
	.st10{fill:#78DED4;}
	.st11{fill:#1E5363;}
	.st12{fill:#54C8E8;}
	.st13{fill:#F4F4F4;}
	.st14{fill:#0C82EB;}
	.st15{fill:#00B2E3;}
	.st16{fill:#68A2B9;}
	.st17{fill:#A2C5D3;}
	.st18{fill:#76777A;}
	.st19{fill:#A7A8A9;}
	.st20{fill:#D6D6D6;}
	.st21{fill:none;stroke:#F92B75;stroke-width:5;stroke-linecap:round;stroke-linejoin:round;stroke-miterlimit:10;}
	.st22{fill:#FD4A5C;}
	.st23{fill:#FF8E9F;}
	.st24{fill:none;stroke:#F458A3;stroke-width:5;stroke-linecap:round;stroke-linejoin:round;stroke-miterlimit:10;}
	.st25{fill:#FFB259;}
	.st26{fill:#F32735;}
	.st27{fill:#FF9E18;}
	.st28{fill:#FFC27A;}
	.st29{fill:#FFC56D;}
	.st30{fill:none;stroke:#FD4A5C;stroke-width:5;stroke-linecap:round;stroke-linejoin:round;stroke-miterlimit:10;}
	.st31{fill:#0069A7;}
	.st32{fill:#D8D8D8;}
	.st33{fill:#8CB7C9;}
	.st34{fill:#65BAAF;}
	.st35{fill:#00AF9A;}
	.st36{fill:#00C4B3;}
	.st37{fill:#19D3C5;}
	.st38{fill:none;stroke:#54C8E8;stroke-width:5;stroke-linecap:round;stroke-linejoin:round;stroke-miterlimit:10;}
	.st39{fill:#8331A7;}
	.st40{fill:#009383;}
	.st41{fill:#98989A;}
	.st42{fill:#636569;}
	.st43{fill:#898A8D;}
	.st44{fill:#FFB548;}
	.st45{fill:none;stroke:#FFB548;stroke-width:5;stroke-linecap:round;stroke-linejoin:round;stroke-miterlimit:10;}
	.st46{fill:#ED40A9;}
	.st47{fill:#CB007B;}
	.st48{fill:#E50695;}
	.st49{fill:#D7282F;}
	.st50{fill:#E5E5E5;}
	.st51{fill:#FFA4B4;}
	.st52{fill:#F6A7D7;}
	.st53{fill:#F478C4;}
	.st54{fill:#E0C7E6;}
	.st55{fill:#B980D0;}
	.st56{fill:#D9B7E2;}
	.st57{fill:#BADF93;}
	.st58{fill:#4C9C2E;}
	.st59{fill:#3DAE2B;}
	.st60{fill:#AADA91;}
	.st61{fill:#6ABF4B;}
	.st62{fill:#EFB8A9;}
	.st63{fill:#FECB8B;}
	.st64{fill:#BDE8EF;}
	.st65{fill:#CCA1DD;}
	.st66{fill:#B2B2B2;}
	.st67{fill:none;stroke:#FF8300;stroke-width:5;stroke-linecap:round;stroke-linejoin:round;stroke-miterlimit:10;}
	.st68{fill:none;stroke:#FF9E18;stroke-width:5;stroke-linecap:round;stroke-linejoin:round;stroke-miterlimit:10;}
	.st69{fill:#96DAEA;}
	.st70{fill:#FF8300;}
	.st71{fill:none;stroke:#6ABF4B;stroke-width:5;stroke-linecap:round;stroke-linejoin:round;stroke-miterlimit:10;}
	.st72{fill:none;}
	.st73{fill:#444444;}
	.st74{fill:#FDCF85;}
</style><g><circle class="st18" cx="31" cy="31" r="28.5"/><g><g><g><path class="st32" d="M17.94,19.05c-0.41,3.02-0.31,5.61,0.5,7.62c0.22,0.54,0.89,0.72,1.36,0.39l3.05-2.14l3.05-2.14      c0.47-0.33,0.53-1.02,0.1-1.41c-1.6-1.45-4.01-2.43-6.99-3.08C18.51,18.18,18.01,18.53,17.94,19.05z"/><path class="st32" d="M44.06,19.05c0.41,3.02,0.31,5.61-0.5,7.62c-0.22,0.54-0.89,0.72-1.36,0.39l-3.05-2.14l-3.05-2.14      c-0.47-0.33-0.53-1.02-0.1-1.41c1.6-1.45,4.01-2.43,6.99-3.08C43.49,18.18,43.99,18.53,44.06,19.05z"/></g><path class="st32" d="M22.7,58.27c0.45-3.98,1.27-7.97,2.49-11.95c-5.37-1.49-9.08-6.51-9.08-12.15c0-0.51,0.03-1.02,0.09-1.52     c0.02-0.17,0.04-0.33,0.07-0.49c0.02-0.15,0.05-0.29,0.08-0.44c0.03-0.18,0.07-0.36,0.12-0.54c0.15-0.64,0.35-1.27,0.61-1.87     c0.36-0.9,0.83-1.76,1.4-2.55v-0.01l0.01-0.01c1.73-2.43,4.31-4.24,7.39-4.91c0.12-0.03,0.25-0.05,0.37-0.07     c0.04-0.01,0.08-0.02,0.12-0.02c0.38-0.08,0.76-0.14,1.14-0.2c0.02,0.01,0.04,0,0.06,0c2.29-0.33,4.57-0.33,6.86,0     c0.02,0,0.04,0.01,0.06,0c0.38,0.06,0.76,0.12,1.14,0.2c0.04,0,0.08,0.01,0.12,0.02c0.12,0.02,0.25,0.04,0.37,0.07     c3.08,0.67,5.66,2.48,7.39,4.91l0.01,0.01v0.01c0.57,0.79,1.04,1.65,1.4,2.55c0.26,0.6,0.46,1.23,0.61,1.87     c0.05,0.18,0.09,0.36,0.12,0.54c0.03,0.15,0.06,0.29,0.08,0.44c0.03,0.16,0.05,0.32,0.07,0.49c0.06,0.5,0.09,1.01,0.09,1.52     c0,5.64-3.71,10.66-9.08,12.15c1.22,3.98,2.04,7.97,2.49,11.95H22.7z"/></g><path class="st19" d="M39.3,60.77c-1.25,0-2.34-0.94-2.48-2.22c-0.44-3.88-1.24-7.74-2.4-11.5c-0.2-0.65-0.13-1.34,0.2-1.93    s0.87-1.03,1.52-1.21c4.27-1.18,7.25-5.19,7.25-9.74c0-0.42-0.02-0.83-0.07-1.22c-0.02-0.13-0.03-0.23-0.05-0.34    c-0.01-0.04-0.01-0.08-0.02-0.11c-0.01-0.07-0.02-0.13-0.04-0.2c0,0-0.02-0.1-0.02-0.1c-0.03-0.16-0.05-0.26-0.08-0.35    c-0.13-0.56-0.29-1.05-0.51-1.59c-0.29-0.71-0.68-1.41-1.13-2.06c-0.29-0.42-0.45-0.92-0.45-1.43c0-0.29,0.05-0.58,0.14-0.85    c0.03-0.08,0.06-0.16,0.1-0.24c0.07-0.17,0.13-0.36,0.18-0.54c0.05-0.18,0.09-0.32,0.12-0.46c0.06-0.29,0.11-0.6,0.15-0.91    c0.07-0.64,0.1-1.39,0.07-2.19c0-0.01,0-0.03,0-0.05c-0.01-0.12-0.01-0.23-0.02-0.35c-0.36,0.11-0.69,0.22-1.01,0.34    c-0.16,0.06-0.34,0.13-0.52,0.21l-0.36,0.15c-0.81,0.36-1.48,0.76-2.01,1.21c-0.07,0.06-0.11,0.09-0.15,0.13l-0.03,0.02    c-0.05,0.05-0.11,0.11-0.16,0.16l-0.12,0.12c-0.58,0.58-1.42,0.84-2.22,0.69c-0.31-0.06-0.61-0.11-0.92-0.16    c-0.02,0-0.04,0-0.06-0.01c-0.04,0-0.07-0.01-0.11-0.01c-2.04-0.29-4.12-0.29-6.17,0c-0.04,0.01-0.08,0.01-0.11,0.01    c-0.02,0-0.04,0-0.06,0c-0.31,0.05-0.61,0.11-0.92,0.16c-0.81,0.15-1.64-0.11-2.22-0.69l-0.12-0.12    c-0.04-0.04-0.09-0.08-0.13-0.12l-0.01-0.01c-0.08-0.08-0.13-0.11-0.17-0.15c-0.56-0.47-1.23-0.87-2.01-1.22l-0.4-0.17    c-0.17-0.07-0.35-0.14-0.53-0.21c-0.31-0.11-0.64-0.22-0.99-0.33c-0.01,0.12-0.01,0.23-0.02,0.35c0,0.02,0,0.04,0,0.05    c-0.03,0.8,0,1.55,0.08,2.24c0.04,0.27,0.08,0.57,0.15,0.86c0.03,0.14,0.07,0.28,0.11,0.42c0.06,0.22,0.12,0.41,0.19,0.59    c0.04,0.08,0.07,0.16,0.1,0.24c0.09,0.27,0.14,0.55,0.14,0.84c0,0.51-0.16,1.02-0.45,1.44c-0.46,0.66-0.84,1.35-1.14,2.07    c-0.22,0.53-0.38,1.02-0.49,1.49c-0.05,0.19-0.07,0.29-0.09,0.38c0,0.02-0.03,0.14-0.03,0.17c-0.01,0.07-0.03,0.13-0.04,0.2    c-0.01,0.04-0.01,0.08-0.02,0.11c-0.02,0.11-0.03,0.21-0.04,0.33c-0.05,0.41-0.07,0.82-0.07,1.23c0,4.55,2.98,8.56,7.25,9.74    c0.65,0.18,1.2,0.62,1.52,1.21s0.4,1.29,0.2,1.93c-1.15,3.75-1.96,7.62-2.4,11.5c-0.16,1.37-1.39,2.36-2.77,2.2    c-1.37-0.16-2.36-1.39-2.2-2.77c0.39-3.41,1.04-6.81,1.93-10.15c-5.13-2.45-8.54-7.75-8.54-13.67c0-0.62,0.04-1.23,0.11-1.82    c0.02-0.19,0.05-0.39,0.08-0.59c0.02-0.15,0.05-0.29,0.08-0.44c0.05-0.28,0.11-0.54,0.18-0.81c0.15-0.64,0.39-1.37,0.71-2.15    c0.27-0.67,0.6-1.31,0.96-1.94c0-0.01-0.01-0.03-0.01-0.04c-0.05-0.18-0.11-0.4-0.16-0.62c-0.1-0.43-0.17-0.88-0.23-1.35    c-0.11-0.96-0.14-1.96-0.11-2.99c0-0.03,0-0.11,0-0.14c0.03-0.54,0.07-1.04,0.12-1.57c0.03-0.29,0.07-0.58,0.1-0.87l0.01-0.11    c0.07-0.46,0.18-0.79,0.34-1.12c0.04-0.09,0.09-0.17,0.15-0.25c0.19-0.28,0.41-0.54,0.66-0.76c0.27-0.24,0.6-0.44,0.97-0.59    c0.58-0.23,1.23-0.29,1.84-0.19c0.04,0.01,0.08,0.01,0.12,0.02c1.27,0.27,2.43,0.6,3.45,0.98c0.26,0.1,0.5,0.19,0.74,0.29    l0.15,0.06c0.11,0.05,0.23,0.1,0.33,0.14c1.09,0.48,2.07,1.07,2.92,1.74c0.08-0.01,0.16-0.02,0.24-0.03    c2.41-0.32,4.85-0.32,7.26,0c0.08,0,0.16,0.01,0.24,0.03c0.84-0.67,1.83-1.26,2.95-1.75c0.08-0.04,0.19-0.08,0.3-0.13l0.14-0.06    c0.25-0.11,0.49-0.2,0.73-0.29c1.04-0.39,2.2-0.72,3.47-0.99c0.04-0.01,0.08-0.02,0.12-0.02c0.61-0.1,1.26-0.04,1.83,0.18    c0.38,0.15,0.71,0.35,0.99,0.6c0.24,0.21,0.47,0.46,0.65,0.75c0.05,0.08,0.1,0.17,0.15,0.25c0.16,0.32,0.27,0.66,0.33,1.04    l0.03,0.2c0.04,0.29,0.08,0.58,0.1,0.86c0.05,0.53,0.08,1.03,0.12,1.53c0,0.05,0.01,0.15,0.01,0.2c0.03,1.02,0,2.01-0.11,2.92    c-0.07,0.51-0.14,0.97-0.23,1.4c-0.05,0.22-0.11,0.44-0.17,0.66c0.37,0.63,0.69,1.27,0.96,1.94c0.32,0.79,0.56,1.52,0.73,2.25    c0.05,0.17,0.11,0.43,0.15,0.7c0.03,0.16,0.06,0.31,0.08,0.46c0.03,0.2,0.06,0.39,0.08,0.6c0.07,0.58,0.11,1.19,0.11,1.8    c0,5.92-3.41,11.23-8.54,13.67c0.9,3.33,1.55,6.74,1.93,10.15c0.16,1.37-0.83,2.61-2.2,2.77C39.49,60.76,39.39,60.77,39.3,60.77z"/></g><path class="st42" d="M31,62C13.91,62,0,48.09,0,31S13.91,0,31,0s31,13.91,31,31S48.09,62,31,62z M31,5C16.66,5,5,16.66,5,31   s11.66,26,26,26s26-11.66,26-26S45.34,5,31,5z"/><path class="st43" d="M2.5,33.5C1.12,33.5,0,32.38,0,31C0,13.91,13.91,0,31,0c1.38,0,2.5,1.12,2.5,2.5S32.38,5,31,5   C16.66,5,5,16.66,5,31C5,32.38,3.88,33.5,2.5,33.5z"/></g></svg>