<?xml version="1.0" ?><svg id="Layer_1" style="enable-background:new 0 0 62 62;" version="1.1" viewBox="0 0 62 62" xml:space="preserve" xmlns="http://www.w3.org/2000/svg" xmlns:xlink="http://www.w3.org/1999/xlink"><style type="text/css">
	.st0{fill:#5FD2FF;}
	.st1{fill:#FFFFFF;}
	.st2{fill:#0082ED;}
	.st3{fill:#2BA8FC;}
	.st4{fill:#CECECE;}
	.st5{fill:#F92B75;}
	.st6{fill:#3BB0FF;}
	.st7{fill:#CE004F;}
	.st8{fill:none;stroke:#ED0C68;stroke-width:5;stroke-linecap:round;stroke-linejoin:round;stroke-miterlimit:10;}
	.st9{fill:#ED0C68;}
	.st10{fill:#78DED4;}
	.st11{fill:#1E5363;}
	.st12{fill:#54C8E8;}
	.st13{fill:#F4F4F4;}
	.st14{fill:#0C82EB;}
	.st15{fill:#00B2E3;}
	.st16{fill:#68A2B9;}
	.st17{fill:#A2C5D3;}
	.st18{fill:#76777A;}
	.st19{fill:#A7A8A9;}
	.st20{fill:#D6D6D6;}
	.st21{fill:none;stroke:#F92B75;stroke-width:5;stroke-linecap:round;stroke-linejoin:round;stroke-miterlimit:10;}
	.st22{fill:#FD4A5C;}
	.st23{fill:#FF8E9F;}
	.st24{fill:none;stroke:#F458A3;stroke-width:5;stroke-linecap:round;stroke-linejoin:round;stroke-miterlimit:10;}
	.st25{fill:#FFB259;}
	.st26{fill:#F32735;}
	.st27{fill:#FF9E18;}
	.st28{fill:#FFC27A;}
	.st29{fill:#FFC56D;}
	.st30{fill:none;stroke:#FD4A5C;stroke-width:5;stroke-linecap:round;stroke-linejoin:round;stroke-miterlimit:10;}
	.st31{fill:#0069A7;}
	.st32{fill:#D8D8D8;}
	.st33{fill:#8CB7C9;}
	.st34{fill:#65BAAF;}
	.st35{fill:#00AF9A;}
	.st36{fill:#00C4B3;}
	.st37{fill:#19D3C5;}
	.st38{fill:none;stroke:#54C8E8;stroke-width:5;stroke-linecap:round;stroke-linejoin:round;stroke-miterlimit:10;}
	.st39{fill:#8331A7;}
	.st40{fill:#009383;}
	.st41{fill:#98989A;}
	.st42{fill:#636569;}
	.st43{fill:#898A8D;}
	.st44{fill:#FFB548;}
	.st45{fill:none;stroke:#FFB548;stroke-width:5;stroke-linecap:round;stroke-linejoin:round;stroke-miterlimit:10;}
	.st46{fill:#ED40A9;}
	.st47{fill:#CB007B;}
	.st48{fill:#E50695;}
	.st49{fill:#D7282F;}
	.st50{fill:#E5E5E5;}
	.st51{fill:#FFA4B4;}
	.st52{fill:#F6A7D7;}
	.st53{fill:#F478C4;}
	.st54{fill:#E0C7E6;}
	.st55{fill:#B980D0;}
	.st56{fill:#D9B7E2;}
	.st57{fill:#BADF93;}
	.st58{fill:#4C9C2E;}
	.st59{fill:#3DAE2B;}
	.st60{fill:#AADA91;}
	.st61{fill:#6ABF4B;}
	.st62{fill:#EFB8A9;}
	.st63{fill:#FECB8B;}
	.st64{fill:#BDE8EF;}
	.st65{fill:#CCA1DD;}
	.st66{fill:#B2B2B2;}
	.st67{fill:none;stroke:#FF8300;stroke-width:5;stroke-linecap:round;stroke-linejoin:round;stroke-miterlimit:10;}
	.st68{fill:none;stroke:#FF9E18;stroke-width:5;stroke-linecap:round;stroke-linejoin:round;stroke-miterlimit:10;}
	.st69{fill:#96DAEA;}
	.st70{fill:#FF8300;}
	.st71{fill:none;stroke:#6ABF4B;stroke-width:5;stroke-linecap:round;stroke-linejoin:round;stroke-miterlimit:10;}
	.st72{fill:none;}
	.st73{fill:#444444;}
	.st74{fill:#FDCF85;}
</style><g><path class="st10" d="M16.5,12.26v40.32h-12c-1.1,0-2-0.9-2-2v-34c0-1.22,0.31-2.44,0.96-3.57c1.98-3.43,6.36-4.61,9.79-2.63   L16.5,12.26z"/><path class="st35" d="M16.5,55.08h-12c-2.48,0-4.5-2.02-4.5-4.5v-34c0-1.68,0.45-3.35,1.29-4.82C3.96,7.14,9.89,5.55,14.5,8.22   l3.25,1.88c0.77,0.45,1.25,1.27,1.25,2.16v40.32C19,53.96,17.88,55.08,16.5,55.08z M5,50.08h9V13.7l-2-1.16   c-1.08-0.62-2.34-0.79-3.54-0.46c-1.2,0.32-2.21,1.1-2.84,2.18C5.21,14.98,5,15.76,5,16.58V50.08z"/><path class="st12" d="M45.5,12.26v40.32h12c1.1,0,2-0.9,2-2v-34c0-1.22-0.31-2.44-0.96-3.57c-1.98-3.43-6.36-4.61-9.79-2.63   L45.5,12.26z"/><g><path class="st22" d="M58.54,13.01L58.54,13.01c-1.98-3.43-6.36-4.6-9.79-2.62L31,20.63L13.25,10.38    c-3.43-1.98-7.81-0.8-9.79,2.62l0,0c-1.98,3.43-0.8,7.81,2.62,9.79L31,37.18l0,0l0,0l24.91-14.38    C59.34,20.82,60.52,16.43,58.54,13.01z"/></g><g><path class="st26" d="M31,39.68c-0.07,0-0.13,0-0.2-0.01c-0.36-0.03-0.73-0.13-1.06-0.33L4.83,24.96    c-4.62-2.66-6.2-8.59-3.54-13.2s8.59-6.2,13.2-3.54L31,17.75l16.5-9.53c2.23-1.29,4.84-1.63,7.33-0.97    c2.49,0.67,4.58,2.27,5.87,4.5s1.63,4.84,0.97,7.33s-2.27,4.58-4.5,5.87L32.25,39.34C31.86,39.57,31.43,39.68,31,39.68z     M9.67,11.92c-1.61,0-3.19,0.84-4.05,2.33c-1.29,2.23-0.52,5.09,1.71,6.37L31,34.29l23.67-13.66c1.08-0.62,1.85-1.63,2.17-2.83    c0.32-1.2,0.16-2.46-0.47-3.54s-1.63-1.85-2.83-2.17c-1.2-0.32-2.46-0.16-3.54,0.47L32.25,22.8c-0.77,0.45-1.73,0.45-2.5,0    L12,12.55C11.26,12.13,10.46,11.92,9.67,11.92z"/></g><g><path class="st46" d="M16.5,12.26v16.55L6.08,22.79c-2.29-1.33-3.58-3.74-3.58-6.21c0-1.22,0.31-2.44,0.96-3.57    c1.98-3.43,6.36-4.61,9.79-2.63L16.5,12.26z"/></g><g><path class="st46" d="M16.5,12.26v16.55L6.08,22.79c-2.29-1.33-3.58-3.74-3.58-6.21c0-1.22,0.31-2.44,0.96-3.57    c1.98-3.43,6.36-4.61,9.79-2.63L16.5,12.26z"/></g><g><path class="st47" d="M16.5,31.31c-0.43,0-0.86-0.11-1.25-0.34L4.83,24.96C1.85,23.22,0,20.02,0,16.58c0-1.68,0.45-3.35,1.29-4.82    C3.96,7.14,9.89,5.55,14.5,8.22l3.25,1.88c0.77,0.45,1.25,1.27,1.25,2.16v16.55c0,0.89-0.48,1.72-1.25,2.17    C17.36,31.2,16.93,31.31,16.5,31.31z M9.68,11.92c-1.62,0-3.19,0.84-4.05,2.34C5.21,14.98,5,15.76,5,16.58    c0,1.66,0.9,3.21,2.34,4.05L14,24.48V13.7l-2-1.16C11.27,12.12,10.47,11.92,9.68,11.92z"/></g><g><path class="st48" d="M6.08,25.29c-0.43,0-0.86-0.11-1.25-0.34C1.85,23.22,0,20.02,0,16.58c0-1.68,0.45-3.35,1.29-4.82    C3.96,7.14,9.89,5.55,14.5,8.22c1.2,0.69,1.61,2.22,0.92,3.42c-0.69,1.19-2.22,1.61-3.42,0.92c-2.23-1.29-5.09-0.52-6.38,1.71    C5.21,14.98,5,15.76,5,16.58c0,1.66,0.9,3.21,2.34,4.05c1.19,0.69,1.6,2.22,0.91,3.42C7.78,24.85,6.94,25.29,6.08,25.29z"/></g><path class="st14" d="M57.5,55.08h-12c-1.38,0-2.5-1.12-2.5-2.5V12.26c0-0.89,0.48-1.72,1.25-2.16l3.25-1.88   c4.62-2.66,10.54-1.08,13.21,3.54C61.55,13.23,62,14.9,62,16.58v34C62,53.06,59.98,55.08,57.5,55.08z M48,50.08h9v-33.5   c0-0.82-0.21-1.6-0.63-2.32c-1.29-2.23-4.15-3-6.37-1.71l-2,1.16V50.08z"/><path class="st29" d="M59.5,16.58c0,2.47-1.29,4.88-3.58,6.21L45.5,28.81V12.26l3.25-1.88c3.43-1.98,7.81-0.8,9.79,2.63   C59.19,14.14,59.5,15.36,59.5,16.58z"/><path class="st27" d="M45.5,31.31c-0.43,0-0.86-0.11-1.25-0.33C43.47,30.53,43,29.7,43,28.81V12.26c0-0.89,0.48-1.72,1.25-2.16   l3.25-1.88c4.62-2.66,10.54-1.08,13.21,3.54C61.55,13.23,62,14.9,62,16.58c0,3.44-1.85,6.64-4.82,8.37l-10.42,6.02   C46.36,31.2,45.93,31.31,45.5,31.31z M48,13.7v10.78l6.67-3.85C56.1,19.79,57,18.24,57,16.58c0-0.82-0.21-1.6-0.63-2.32   c-1.29-2.23-4.15-3-6.37-1.71L48,13.7z"/><path class="st44" d="M55.92,25.29c-0.86,0-1.7-0.45-2.16-1.25c-0.69-1.19-0.29-2.72,0.91-3.42C56.1,19.79,57,18.24,57,16.58   c0-0.82-0.21-1.6-0.63-2.32c-1.29-2.23-4.15-3-6.37-1.71c-1.19,0.69-2.72,0.28-3.42-0.92c-0.69-1.2-0.28-2.72,0.92-3.42   c4.61-2.66,10.54-1.07,13.21,3.54C61.55,13.23,62,14.9,62,16.58c0,3.44-1.85,6.64-4.82,8.37C56.78,25.18,56.35,25.29,55.92,25.29z"/></g></svg>