<?xml version="1.0" ?><svg id="Layer_1" style="enable-background:new 0 0 62 62;" version="1.1" viewBox="0 0 62 62" xml:space="preserve" xmlns="http://www.w3.org/2000/svg" xmlns:xlink="http://www.w3.org/1999/xlink"><style type="text/css">
	.st0{fill:#5FD2FF;}
	.st1{fill:#FFFFFF;}
	.st2{fill:#0082ED;}
	.st3{fill:#2BA8FC;}
	.st4{fill:#CECECE;}
	.st5{fill:#F92B75;}
	.st6{fill:#3BB0FF;}
	.st7{fill:#CE004F;}
	.st8{fill:none;stroke:#ED0C68;stroke-width:5;stroke-linecap:round;stroke-linejoin:round;stroke-miterlimit:10;}
	.st9{fill:#ED0C68;}
	.st10{fill:#78DED4;}
	.st11{fill:#1E5363;}
	.st12{fill:#54C8E8;}
	.st13{fill:#F4F4F4;}
	.st14{fill:#0C82EB;}
	.st15{fill:#00B2E3;}
	.st16{fill:#68A2B9;}
	.st17{fill:#A2C5D3;}
	.st18{fill:#76777A;}
	.st19{fill:#A7A8A9;}
	.st20{fill:#D6D6D6;}
	.st21{fill:none;stroke:#F92B75;stroke-width:5;stroke-linecap:round;stroke-linejoin:round;stroke-miterlimit:10;}
	.st22{fill:#FD4A5C;}
	.st23{fill:#FF8E9F;}
	.st24{fill:none;stroke:#F458A3;stroke-width:5;stroke-linecap:round;stroke-linejoin:round;stroke-miterlimit:10;}
	.st25{fill:#FFB259;}
	.st26{fill:#F32735;}
	.st27{fill:#FF9E18;}
	.st28{fill:#FFC27A;}
	.st29{fill:#FFC56D;}
	.st30{fill:none;stroke:#FD4A5C;stroke-width:5;stroke-linecap:round;stroke-linejoin:round;stroke-miterlimit:10;}
	.st31{fill:#0069A7;}
	.st32{fill:#D8D8D8;}
	.st33{fill:#8CB7C9;}
	.st34{fill:#65BAAF;}
	.st35{fill:#00AF9A;}
	.st36{fill:#00C4B3;}
	.st37{fill:#19D3C5;}
	.st38{fill:none;stroke:#54C8E8;stroke-width:5;stroke-linecap:round;stroke-linejoin:round;stroke-miterlimit:10;}
	.st39{fill:#8331A7;}
	.st40{fill:#009383;}
	.st41{fill:#98989A;}
	.st42{fill:#636569;}
	.st43{fill:#898A8D;}
	.st44{fill:#FFB548;}
	.st45{fill:none;stroke:#FFB548;stroke-width:5;stroke-linecap:round;stroke-linejoin:round;stroke-miterlimit:10;}
	.st46{fill:#ED40A9;}
	.st47{fill:#CB007B;}
	.st48{fill:#E50695;}
	.st49{fill:#D7282F;}
	.st50{fill:#E5E5E5;}
	.st51{fill:#FFA4B4;}
	.st52{fill:#F6A7D7;}
	.st53{fill:#F478C4;}
	.st54{fill:#E0C7E6;}
	.st55{fill:#B980D0;}
	.st56{fill:#D9B7E2;}
	.st57{fill:#BADF93;}
	.st58{fill:#4C9C2E;}
	.st59{fill:#3DAE2B;}
	.st60{fill:#AADA91;}
	.st61{fill:#6ABF4B;}
	.st62{fill:#EFB8A9;}
	.st63{fill:#FECB8B;}
	.st64{fill:#BDE8EF;}
	.st65{fill:#CCA1DD;}
	.st66{fill:#B2B2B2;}
	.st67{fill:none;stroke:#FF8300;stroke-width:5;stroke-linecap:round;stroke-linejoin:round;stroke-miterlimit:10;}
	.st68{fill:none;stroke:#FF9E18;stroke-width:5;stroke-linecap:round;stroke-linejoin:round;stroke-miterlimit:10;}
	.st69{fill:#96DAEA;}
	.st70{fill:#FF8300;}
	.st71{fill:none;stroke:#6ABF4B;stroke-width:5;stroke-linecap:round;stroke-linejoin:round;stroke-miterlimit:10;}
	.st72{fill:none;}
	.st73{fill:#444444;}
	.st74{fill:#FDCF85;}
</style><g><path class="st60" d="M31,2.5C15.26,2.5,2.5,15.26,2.5,31c0,6.09,1.92,11.74,5.18,16.37L2.95,58.91l11.51-4.71   c4.67,3.33,10.37,5.3,16.54,5.3c15.74,0,28.5-12.76,28.5-28.5S46.74,2.5,31,2.5z"/><path class="st58" d="M31,62c-6.02,0-11.82-1.72-16.84-4.98L3.9,61.23c-0.93,0.38-2,0.17-2.71-0.55c-0.71-0.71-0.93-1.78-0.55-2.71   l4.22-10.31C1.68,42.67,0,36.95,0,31C0,13.91,13.91,0,31,0s31,13.91,31,31S48.09,62,31,62z M14.46,51.7c0.51,0,1.02,0.16,1.45,0.47   C20.34,55.33,25.56,57,31,57c14.34,0,26-11.66,26-26S45.34,5,31,5S5,16.66,5,31c0,5.38,1.63,10.54,4.72,14.93   c0.49,0.7,0.59,1.6,0.27,2.38l-2.46,6.02l5.98-2.45C13.81,51.76,14.14,51.7,14.46,51.7z"/><path class="st61" d="M2.95,61.41c-0.32,0-0.64-0.06-0.95-0.19c-1.28-0.52-1.89-1.98-1.37-3.26l4.22-10.31C1.68,42.67,0,36.95,0,31   C0,13.91,13.91,0,31,0c1.38,0,2.5,1.12,2.5,2.5S32.38,5,31,5C16.66,5,5,16.66,5,31c0,5.38,1.63,10.54,4.72,14.93   c0.49,0.7,0.59,1.6,0.27,2.38L5.26,59.86C4.87,60.83,3.93,61.41,2.95,61.41z"/><path class="st13" d="M45.86,41.83l-3.65,3.65c-1.24,1.24-3.17,1.49-4.66,0.58c-8.95-5.45-16.15-12.65-21.6-21.6   c-0.91-1.5-0.66-3.42,0.58-4.66l3.65-3.65c1-1,2.61-1,3.6,0l4.88,4.88c0.41,0.41,0.52,1.05,0.25,1.57l-2.02,3.57   c-0.26,0.52-0.16,1.16,0.25,1.57l7.12,7.12c0.41,0.41,1.05,0.52,1.57,0.25l3.57-2.02c0.52-0.26,1.16-0.16,1.57,0.25l4.88,4.88   C46.85,39.22,46.85,40.83,45.86,41.83z"/><path class="st43" d="M39.5,49.11c-1.12,0-2.24-0.3-3.25-0.91c-9.26-5.63-16.81-13.18-22.44-22.44c-1.51-2.48-1.12-5.66,0.95-7.73   l3.65-3.65c0.95-0.95,2.22-1.48,3.57-1.48c1.35,0,2.62,0.53,3.57,1.48l4.88,4.88c1.18,1.18,1.47,2.97,0.72,4.46   c-0.02,0.04-0.04,0.07-0.06,0.11l-1.56,2.76l5.89,5.89l2.76-1.56c0.04-0.02,0.07-0.04,0.11-0.06c1.49-0.75,3.28-0.46,4.46,0.72   l4.88,4.88c1.97,1.97,1.97,5.17,0,7.14l-3.65,3.65C42.75,48.47,41.13,49.11,39.5,49.11z M22.01,17.91l-3.72,3.65   c-0.43,0.43-0.52,1.1-0.21,1.59c5.21,8.57,12.2,15.55,20.77,20.77c0.5,0.3,1.17,0.21,1.59-0.21l3.65-3.65   c0.02-0.02,0.02-0.05,0-0.07l-4.27-4.27l-2.76,1.56c-0.04,0.02-0.07,0.04-0.11,0.06c-1.49,0.75-3.28,0.46-4.46-0.72l-7.12-7.12   c-1.18-1.18-1.47-2.97-0.72-4.46c0.02-0.04,0.04-0.07,0.06-0.11l1.56-2.76L22.01,17.91z"/></g></svg>